<svg width="20" height="16" viewBox="0 0 20 16" fill="none" xmlns="http://www.w3.org/2000/svg">
<path fill-rule="evenodd" clip-rule="evenodd" d="M5.99999 1C5.99999 0.447715 6.44771 0 6.99999 0H12.3333C12.8856 0 13.3333 0.447716 13.3333 1V8.33332C13.3333 8.88561 13.781 9.33332 14.3333 9.33332H18.3333C18.8856 9.33332 19.3333 9.78104 19.3333 10.3333V15C19.3333 15.5523 18.8856 16 18.3333 16H13.3333H5.99999H1C0.447715 16 0 15.5523 0 15V13.3333V9.33332V6.99999C0 6.44771 0.447715 5.99999 1 5.99999H4.99999C5.55228 5.99999 5.99999 5.55228 5.99999 4.99999V1Z" fill="#D9D9D9"/>
<rect x="3" y="8" width="2" height="6" fill="#731F9A"/>
<rect x="8" y="8" width="2" height="6" fill="#731F9A"/>
</svg>
